<?xml version="1.0" ?><!DOCTYPE svg  PUBLIC '-//W3C//DTD SVG 1.1//EN'  'http://www.w3.org/Graphics/SVG/1.1/DTD/svg11.dtd'><svg enable-background="new 0 0 128 128" id="Слой_1" version="1.1" viewBox="0 0 128 128" xml:space="preserve" xmlns="http://www.w3.org/2000/svg" xmlns:xlink="http://www.w3.org/1999/xlink"><g><g><circle cx="64" cy="64" fill="#6A474A" r="62"/><circle cx="64" cy="64" fill="none" r="62" stroke="#1E1E1E" stroke-miterlimit="10" stroke-width="1.25"/><g opacity="0.3"><circle cx="53.5" cy="23.9" fill="#060808" r="13"/><circle cx="72.5" cy="94.2" fill="#060808" r="10"/><circle cx="107.8" cy="72.2" fill="#060808" r="7.5"/><circle cx="54.8" cy="81.4" fill="#060808" r="5.5"/><circle cx="42" cy="45.7" fill="#060808" r="4"/><circle cx="87" cy="112.7" fill="#060808" r="3.5"/><circle cx="22" cy="36.7" fill="#060808" r="4"/><circle cx="21" cy="93.7" fill="#060808" r="5"/><circle cx="13" cy="83.7" fill="#060808" r="3"/><circle cx="94.8" cy="30.2" fill="#060808" r="10"/></g><g><circle cx="72.5" cy="94.2" fill="none" r="10" stroke="#1E1E1E" stroke-miterlimit="10" stroke-width="1.25"/><circle cx="107.8" cy="72.2" fill="none" r="7.5" stroke="#1E1E1E" stroke-miterlimit="10" stroke-width="1.25"/><circle cx="54.8" cy="81.4" fill="none" r="5.5" stroke="#1E1E1E" stroke-miterlimit="10" stroke-width="1.25"/><circle cx="54.8" cy="81.4" fill="none" r="5.5" stroke="#1E1E1E" stroke-miterlimit="10" stroke-width="1.25"/><circle cx="42" cy="45.7" fill="none" r="4" stroke="#1E1E1E" stroke-miterlimit="10" stroke-width="1.25"/><circle cx="87" cy="112.7" fill="none" r="3.5" stroke="#1E1E1E" stroke-miterlimit="10" stroke-width="1.25"/><circle cx="22" cy="36.7" fill="none" r="4" stroke="#1E1E1E" stroke-miterlimit="10" stroke-width="1.25"/><circle cx="21" cy="93.7" fill="none" r="5" stroke="#1E1E1E" stroke-miterlimit="10" stroke-width="1.25"/><circle cx="13" cy="83.7" fill="none" r="3" stroke="#1E1E1E" stroke-miterlimit="10" stroke-width="1.25"/><circle cx="53.5" cy="23.9" fill="none" r="13" stroke="#1E1E1E" stroke-miterlimit="10" stroke-width="1.25"/><circle cx="94.8" cy="30.2" fill="none" r="10" stroke="#1E1E1E" stroke-miterlimit="10" stroke-width="1.25"/></g><g><g opacity="0.2"><path d="M75.5,87.2c2,0,3.8,0.6,5.4,1.6c-1.8-2.8-4.9-4.6-8.4-4.6c-5.5,0-10,4.5-10,10c0,3.5,1.8,6.6,4.6,8.4      c-1-1.6-1.6-3.4-1.6-5.4C65.5,91.6,70,87.2,75.5,87.2z" fill="#0C0E0E"/></g><g opacity="0.2"><path d="M110.8,67.7c1.3,0,2.5,0.3,3.6,0.9c-1.3-2.3-3.7-3.9-6.6-3.9c-4.1,0-7.5,3.4-7.5,7.5      c0,2.8,1.6,5.3,3.9,6.6c-0.6-1.1-0.9-2.3-0.9-3.6C103.3,71,106.7,67.7,110.8,67.7z" fill="#0C0E0E"/></g><g opacity="0.2"><path d="M56.8,77.9c1,0,1.9,0.3,2.8,0.7c-1-1.6-2.7-2.7-4.8-2.7c-3,0-5.5,2.5-5.5,5.5c0,2,1.1,3.8,2.7,4.8      c-0.5-0.8-0.7-1.8-0.7-2.8C51.3,80.4,53.8,77.9,56.8,77.9z" fill="#0C0E0E"/></g><g opacity="0.2"><path d="M44,43.7c0.6,0,1.1,0.1,1.6,0.4c-0.6-1.4-2-2.4-3.6-2.4c-2.2,0-4,1.8-4,4c0,1.6,1,3,2.4,3.6      c-0.2-0.5-0.4-1.1-0.4-1.6C40,45.5,41.8,43.7,44,43.7z" fill="#0C0E0E"/></g><g opacity="0.2"><path d="M89,111.2c0.4,0,0.9,0.1,1.3,0.2c-0.5-1.3-1.8-2.2-3.3-2.2c-1.9,0-3.5,1.6-3.5,3.5      c0,1.5,0.9,2.8,2.2,3.3c-0.2-0.4-0.2-0.8-0.2-1.3C85.5,112.7,87.1,111.2,89,111.2z" fill="#0C0E0E"/></g><g opacity="0.2"><path d="M24,34.7c0.6,0,1.1,0.1,1.6,0.4c-0.6-1.4-2-2.4-3.6-2.4c-2.2,0-4,1.8-4,4c0,1.6,1,3,2.4,3.6      c-0.2-0.5-0.4-1.1-0.4-1.6C20,36.5,21.8,34.7,24,34.7z" fill="#0C0E0E"/></g><g opacity="0.2"><path d="M23,90.7c0.9,0,1.7,0.2,2.4,0.6c-0.8-1.6-2.5-2.6-4.4-2.6c-2.8,0-5,2.2-5,5c0,1.9,1.1,3.5,2.6,4.4      c-0.4-0.7-0.6-1.5-0.6-2.4C18,92.9,20.3,90.7,23,90.7z" fill="#0C0E0E"/></g><g opacity="0.2"><path d="M15,82.7c0.3,0,0.6,0.1,0.9,0.1c-0.4-1.2-1.5-2.1-2.9-2.1c-1.7,0-3,1.3-3,3c0,1.4,0.9,2.5,2.1,2.9      C12.1,86.3,12,86,12,85.7C12,84,13.4,82.7,15,82.7z" fill="#0C0E0E"/></g><g opacity="0.2"><path d="M56.5,13.9c2.8,0,5.4,0.9,7.6,2.4c-2.4-3.3-6.2-5.4-10.6-5.4c-7.2,0-13,5.8-13,13      c0,4.4,2.2,8.2,5.4,10.6c-1.5-2.1-2.4-4.7-2.4-7.6C43.5,19.7,49.4,13.9,56.5,13.9z" fill="#0C0E0E"/></g><g opacity="0.2"><path d="M97.8,23.2c2,0,3.8,0.6,5.4,1.6c-1.8-2.8-4.9-4.6-8.4-4.6c-5.5,0-10,4.5-10,10c0,3.5,1.8,6.6,4.6,8.4      c-1-1.6-1.6-3.4-1.6-5.4C87.8,27.6,92.3,23.2,97.8,23.2z" fill="#0C0E0E"/></g></g></g><path d="M15.3,102.3l32.8-27L40,67.2L12.7,98.8C13.5,100,14.4,101.2,15.3,102.3z" fill="#FFFFFF" opacity="0.8"/><path d="M24.9,112.1c1.1,0.9,2.3,1.8,3.5,2.6l32.4-26.7l-8.1-8.1L24.9,112.1z" fill="#FFFFFF" opacity="0.8"/><g opacity="0.2"><path d="M102.5,15.5C111,26,116,39.4,116,54c0,34.2-27.8,62-62,62c-14.6,0-28-5-38.5-13.5    C26.8,116.8,44.3,126,64,126c34.2,0,62-27.8,62-62C126,44.3,116.8,26.8,102.5,15.5z" fill="#060808"/></g><g><g><path d="M29.6,86.5L28.2,87l0.5-1.3c2.8-7.6,7.2-14.6,13-20.3l0,0l8.2,8.2l0,0C44.1,79.3,37.2,83.8,29.6,86.5z" fill="#FEE061"/><path d="M35,80.9l-0.9,0.3l0.3-0.9c1.9-5.1,5.4-9.1,9.2-13l0.6,0.6l4.3,4.3l-0.6-0.6     C44.1,75.5,40.1,79,35,80.9z" fill="#FFFFFF" opacity="0.8"/></g><g><path d="M42.3,99.3L41,99.7l0.5-1.3c2.8-7.6,7.2-14.6,13-20.3l0,0l8.2,8.2l0,0C56.9,92,49.9,96.5,42.3,99.3z" fill="#FEE061"/><path d="M47.7,93.6l-0.9,0.3l0.3-0.9c1.9-5.1,5.4-9.1,9.2-13l0.6,0.6l3.7,3.7l0,0     C56.8,88.2,52.8,91.7,47.7,93.6z" fill="#FFFFFF" opacity="0.8"/></g><g><g><g><path d="M110.3,32.5L110.3,32.5c1,1-2,6.6-6.9,11.6l-3.9,3.9C91,56.5,91,63.8,91.8,70.4l0,0       c2.2,12.5-1.4,16.1-7,21.7l0,0l-17-17L110.3,32.5z" fill="#D8D7D8"/></g><g><path d="M87.5,89.3c4-4.3,6.1-8.6,4.3-18.9l0,0C91,63.8,91,56.5,99.5,47.9l3.9-3.9c4.9-5-5,5-5,5       c-8.5,8.5-10.1,14.7-9.3,21.3l0,0c1.6,9.2-0.4,14.1-3.3,17.2L70.5,72.3l-2.7,2.7l15.7,15.7l1.4,1.4l0,0L87.5,89.3L87.5,89.3z" fill="#3D3E3D"/></g><g><path d="M84.4,92.5C84.4,92.5,84.4,92.5,84.4,92.5L67.4,75.4c-0.2-0.2-0.2-0.5,0-0.7L110,32.1       c0.2-0.2,0.5-0.2,0.7,0c1.5,1.5-2.4,7.7-6.9,12.3l-3.9,3.9c-8.4,8.4-8.4,15.5-7.6,22c2.3,12.7-1.4,16.4-7,22c0,0,0,0.1-0.1,0.1       C85,92.7,84.6,92.7,84.4,92.5z M68.5,75.1l16.3,16.3c5.4-5.4,8.6-8.9,6.5-20.9c-0.8-6.5-0.9-14.2,7.9-22.9l3.9-3.9       c4.2-4.3,6.5-8.4,6.9-10.1L68.5,75.1z" fill="#1E1E1E"/></g><g><path d="M95.5,17.7L95.5,17.7c-1-1-6.6,2-11.6,6.9l-3.9,3.9C71.5,37,64.2,37,57.6,36.2l0,0       c-12.5-2.2-16.1,1.4-21.7,7l0,0l17,17L95.5,17.7z" fill="#D8D7D8"/></g><g><path d="M40.4,42.3c3.6-3.3,8-4.9,17.2-3.3c6.6,0.8,12.8-0.8,21.3-9.3c0,0,10.1-10,5-5l-3.9,3.9       C71.5,37,64.2,37,57.6,36.2c-10.3-1.8-14.6,0.3-18.9,4.3l0,0L36,43.1c0,0-0.1,0.1-0.1,0.1l0,0l1.4,1.4l15.7,15.7l2.7-2.7       L40.4,42.3z" fill="#3D3E3D"/></g><g><path d="M52.6,60.6l-17-17c-0.2-0.2-0.2-0.5,0-0.7c5.7-5.7,9.4-9.4,22.2-7.1c6.5,0.8,13.6,0.8,22-7.6l3.9-3.9       c4.6-4.5,10.8-8.4,12.3-6.9c0.2,0.2,0.2,0.5,0,0.7L53.3,60.6C53.1,60.8,52.8,60.8,52.6,60.6z M36.6,43.2l16.3,16.3l41.5-41.5       c-1.7,0.4-5.8,2.7-10.1,6.9l-3.9,3.9c-8.7,8.7-16.4,8.7-22.9,7.9C45.5,34.6,42,37.8,36.6,43.2z" fill="#1E1E1E"/></g><g><path d="M122.4,5.6L122.4,5.6c-4.4-4.4-19.9,5.1-26.8,12L51,62.2c-0.4,0.4-0.4,1.1,0,1.5l6.6,6.6l6.6,6.6       c0.4,0.4,1.1,0.4,1.5,0l44.5-44.5C117.2,25.6,126.8,10,122.4,5.6z" fill="#D8D7D8"/></g><g><path d="M105.8,10.1l12.1,12.1c4-5.3,7.1-13.9,4.4-16.5l0,0C119.7,3,112.1,5.8,105.8,10.1z" fill="#3D3E3D"/></g><g><path d="M122.4,5.6c-4.4-4.4-19.9,5.1-26.8,12L50.2,63l1.6,1.6l45.3-45.3c6.5-6.5,20.8-15.6,25.9-12.7       C122.9,6.2,122.6,5.9,122.4,5.6L122.4,5.6z" fill="#FFFFFF"/></g><g><path d="M117.5,22.5l-12.1-12.1c-0.2-0.2-0.2-0.5,0-0.7c0.2-0.2,0.5-0.2,0.7,0l12.1,12.1c0.2,0.2,0.2,0.5,0,0.7       C118.1,22.7,117.7,22.7,117.5,22.5z" fill="#1E1E1E"/></g><g><path d="M64.7,78.1L49.9,63.3c-0.2-0.2-0.2-0.5,0-0.7l45.3-45.3c7-7,22.7-16.8,27.6-12       c2.7,2.7,0.6,8.6-1.7,13.1c-2.6,5.1-6.7,10.8-10.4,14.5L65.4,78.1C65.2,78.3,64.9,78.3,64.7,78.1z M51,63L65,77L110,32.1       c3.6-3.6,7.6-9.2,10.2-14.2c2.9-5.8,3.6-10.1,1.9-11.9s-6.1-1.1-11.9,1.9c-5,2.6-10.6,6.5-14.2,10.2L51,63z" fill="#1E1E1E"/></g><g><path d="M104.2,31.7L104.2,31.7c0.3-1.8-0.3-3.7-1.6-5l-1.3-1.3c-1.3-1.3-3.2-1.9-5-1.6h0       c-0.5,0.1-0.9-0.6-0.5-0.9l1.4-1.4c0.8-0.8,1.9-1.4,3-1.6h0c1.8-0.3,3.1,0.8,4.4,2.1l1.3,1.3c1.3,1.3,2.4,2.6,2.1,4.4l0,0       c-0.2,1.1-0.7,2.2-1.6,3l-1.4,1.4C104.8,32.5,104.1,32.2,104.2,31.7z" fill="#3D3E3D"/></g><g><path d="M100.8,21.5c1.8-0.3,3.1,0.8,4.4,2.1l1.3,1.3c0.6,0.6,1.2,1.2,1.6,1.9c-0.1-1.4-1.1-2.5-2.2-3.6       l-1.3-1.3c-1.3-1.3-2.6-2.4-4.4-2.1c-1.1,0.2-2.2,0.7-3,1.6l-1.4,1.4c-0.4,0.4,0,1,0.5,0.9c0.3,0,0.5-0.1,0.8-0.1l0.6-0.6       C98.6,22.3,99.6,21.7,100.8,21.5z" fill="#FFFFFF"/></g><g><path d="M104,32.5c-0.2-0.2-0.4-0.6-0.3-0.9c0.3-1.6-0.2-3.3-1.4-4.5l-1.3-1.3c-1.2-1.2-2.9-1.7-4.5-1.4       c-0.6,0.1-1.2-0.4-1.3-1c0-0.3,0.1-0.6,0.3-0.8l1.4-1.4c0.9-0.9,2-1.5,3.3-1.7c2.1-0.4,3.5,0.9,4.9,2.3l1.3,1.3       c1.3,1.3,2.6,2.8,2.3,4.9c-0.2,1.3-0.8,2.4-1.7,3.3l-1.4,1.4C105.1,32.9,104.4,32.9,104,32.5z M104.3,22.4       c-1.2-1.2-2.4-2.2-4-2c-1,0.2-2,0.7-2.7,1.4l-1.4,1.4l0.1,0.6l-0.1-0.5c2-0.3,4,0.3,5.4,1.7l1.3,1.3c1.4,1.4,2.1,3.5,1.7,5.4       l0,0c0,0,0,0,0.1,0l1.4-1.4c0.7-0.7,1.2-1.7,1.4-2.7c0.3-1.6-0.7-2.7-2-4L104.3,22.4z" fill="#1E1E1E"/></g><g opacity="0.1"><path d="M83.9,24.6l-3.9,3.9c0,0,0,0,0,0L60.6,48c-4.6-0.3-9.8,3-13,6.2l-0.4,0.4l3.4,3.4l2.3,2.3l11.1-11.1       l31.5-31.5C94.6,16.7,89,19.7,83.9,24.6z" fill="#060808"/></g><g><path d="M45.6,63.9l5.8,5.8c0.9,0.9,2.2,0.9,3.1,0l4.3-4.3c3.2-3.2,7.3-9.8,4.1-13l0,0c-3.2-3.2-9.8,0.9-13,4.1       l-4.3,4.3C44.8,61.6,44.8,63,45.6,63.9z" fill="#CCCCCC"/></g><g><path d="M62.9,52.4c-3.2-3.2-9.8,0.9-13,4.1l-4.3,4.3c-0.9,0.9-0.9,2.2,0,3.1l1.4,1.4c-0.9-0.9-0.9-2.2,0-3.1       l4.3-4.3c3-3,8.7-6.9,12.2-4.7C63.3,52.9,63.1,52.6,62.9,52.4L62.9,52.4z" fill="#FFFFFF"/></g><g><path d="M51.1,70l-5.8-5.8c-1.1-1.1-1.1-2.8,0-3.8l4.3-4.3c3.4-3.4,10.2-7.6,13.7-4.1       c3.5,3.5-0.7,10.3-4.1,13.7L54.9,70C53.8,71.1,52.1,71.1,51.1,70z M62.5,52.8c-2.8-2.8-9,0.8-12.3,4.1L46,61.1       c-0.7,0.7-0.7,1.7,0,2.4l5.8,5.8c0.7,0.7,1.7,0.7,2.4,0l4.3-4.3C61.7,61.7,65.3,55.5,62.5,52.8z" fill="#1E1E1E"/></g><g opacity="0.1"><path d="M55.2,68.6l-5.8-5.8c-0.2-0.2-0.2-0.5,0-0.7c0.2-0.2,0.5-0.2,0.7,0l5.8,5.8c0.2,0.2,0.2,0.5,0,0.7       C55.7,68.8,55.4,68.8,55.2,68.6z" fill="#1E1E1E"/></g><g opacity="0.1"><path d="M80,67.4l23.4-23.4c4.9-5,7.9-10.6,6.9-11.6L78.9,63.9L67.7,75.1l2.3,2.3l3.4,3.4l0.4-0.4       C77,77.2,80.4,72,80,67.4z" fill="#060808"/></g><g><path d="M58.4,76.6l5.8,5.8c0.9,0.9,2.2,0.9,3.1,0l4.3-4.3c3.2-3.2,7.3-9.8,4.1-13l0,0c-3.2-3.2-9.8,0.9-13,4.1       l-4.3,4.3C57.5,74.3,57.5,75.7,58.4,76.6z" fill="#CCCCCC"/></g><g><path d="M75.6,65.1c-3.2-3.2-9.8,0.9-13,4.1l-4.3,4.3c-0.9,0.9-0.9,2.2,0,3.1l1.4,1.4c-0.9-0.9-0.9-2.2,0-3.1       l4.3-4.3c3-3,8.8-6.8,12.2-4.7C76,65.6,75.8,65.3,75.6,65.1L75.6,65.1z" fill="#FFFFFF"/></g><g><path d="M63.8,82.7L58,76.9c-1.1-1.1-1.1-2.8,0-3.8l4.3-4.3c3.4-3.4,10.2-7.6,13.7-4.1       c3.5,3.5-0.7,10.3-4.1,13.7l-4.3,4.3C66.6,83.8,64.8,83.8,63.8,82.7z M75.2,65.5c-2.8-2.8-9,0.8-12.3,4.1l-4.3,4.3       c-0.7,0.7-0.7,1.7,0,2.4l5.8,5.8c0.7,0.7,1.7,0.7,2.4,0l4.3-4.3C74.4,74.4,78,68.3,75.2,65.5z" fill="#1E1E1E"/></g><g opacity="0.1"><path d="M67.9,81.4l-6.1-6.1c-0.2-0.2-0.2-0.5,0-0.7c0.2-0.2,0.5-0.2,0.7,0l6.1,6.1c0.2,0.2,0.2,0.5,0,0.7       C68.4,81.6,68.1,81.6,67.9,81.4z" fill="#1E1E1E"/></g><path d="M103.7,39.1L88.9,24.3c-0.2-0.2-0.5-0.2-0.7,0c-0.2,0.2-0.2,0.5,0,0.7l7,7L85,42.3l-7-7      c-0.2-0.2-0.5-0.2-0.7,0c-0.2,0.2-0.2,0.5,0,0.7l7,7L74,53.2l-7-7c-0.2-0.2-0.5-0.2-0.7,0c-0.2,0.2-0.2,0.5,0,0.7l14.8,14.8      c0.2,0.2,0.5,0.2,0.7,0s0.2-0.5,0-0.7l-7-7L85,43.8l7,7c0.2,0.2,0.5,0.2,0.7,0c0.2-0.2,0.2-0.5,0-0.7l-7-7l10.2-10.2l7,7      c0.2,0.2,0.5,0.2,0.7,0S103.9,39.3,103.7,39.1z" fill="#1E1E1E" opacity="0.1"/><g><path d="M49.8,73.5l-8.1-8.1c-0.3-0.3-0.2-0.7,0.1-0.9l0,0c0.9-0.5,2.9-1.6,3.6-0.9l6.1,6.1       c0.7,0.7-0.4,2.8-0.9,3.6l0,0C50.5,73.7,50.1,73.8,49.8,73.5z" fill="#3D3E3D"/></g><g opacity="0.2"><path d="M51.6,69.8l-6.1-6.1c-0.3-0.3-0.9-0.3-1.6-0.1c0,0.5,0.3,1,0.6,1.3l5.8,5.8c0.4,0.4,0.8,0.6,1.3,0.6       C51.9,70.7,51.9,70.1,51.6,69.8z" fill="#060808"/></g><g><path d="M62.6,86.2l-8.1-8.1c-0.3-0.3-0.2-0.7,0.1-0.9l0,0c0.9-0.5,2.9-1.6,3.6-0.9l6.1,6.1       c0.7,0.7-0.4,2.8-0.9,3.6l0,0C63.2,86.4,62.8,86.5,62.6,86.2z" fill="#3D3E3D"/></g><g opacity="0.2"><path d="M64.3,82.5l-6.1-6.1c-0.3-0.3-0.9-0.3-1.6-0.1c0,0.5,0.3,1,0.6,1.3l5.8,5.8c0.4,0.4,0.8,0.6,1.3,0.6       C64.6,83.4,64.6,82.8,64.3,82.5z" fill="#060808"/></g><g><path d="M62.2,86.6l-8.1-8.1c-0.2-0.2-0.3-0.6-0.3-0.9s0.2-0.6,0.5-0.8c1.4-0.9,3.4-1.7,4.2-0.8l6.1,6.1       c0.9,0.9,0.1,2.8-0.8,4.2c-0.2,0.3-0.5,0.5-0.8,0.5C62.7,86.9,62.4,86.8,62.2,86.6z M57.8,76.8c-0.3-0.3-1.4,0-3,1l8.1,8.1       c0,0,0,0,0,0c1-1.6,1.2-2.7,1-3L57.8,76.8z" fill="#1E1E1E"/></g><g><path d="M49.5,73.9l-8.1-8.1c-0.2-0.2-0.3-0.6-0.3-0.9c0-0.3,0.2-0.6,0.5-0.8c1.4-0.9,3.4-1.7,4.2-0.8l6.1,6.1       c0.9,0.9,0.1,2.8-0.8,4.2c-0.2,0.3-0.5,0.5-0.8,0.5C50,74.2,49.7,74.1,49.5,73.9z M45.1,64.1c-0.3-0.3-1.4,0-3,1l8.1,8.1       c0,0,0,0,0,0c1-1.6,1.2-2.7,1-3L45.1,64.1z" fill="#1E1E1E"/></g><g><path d="M53.8,74.2L53.8,74.2c-0.2-0.2-0.2-0.6,0-0.8l14-14.7c0.4-0.4,1.1-0.4,1.5,0v0c0.4,0.4,0.4,1.1,0,1.5       l-14.7,14C54.3,74.5,54,74.5,53.8,74.2z" fill="#959595"/></g><g><path d="M53.4,74.6c-0.4-0.4-0.4-1.1,0-1.5l14-14.7c0.3-0.3,0.7-0.5,1.1-0.5c0.9,0,1.6,0.7,1.6,1.6       c0,0.4-0.2,0.8-0.5,1.1l-14.7,14C54.5,75,53.8,75,53.4,74.6z M68.9,59.1C68.8,59,68.6,59,68.5,59c-0.1,0-0.3,0.1-0.4,0.2       l-14,14.7l0,0.1c0,0,0,0,0.1,0l14.7-14c0.1-0.1,0.2-0.2,0.2-0.4C69,59.4,69,59.2,68.9,59.1z" fill="#1E1E1E"/></g><g opacity="0.1"><path d="M59,65.1l-6-6c-0.2-0.2-0.2-0.5,0-0.7c0.2-0.2,0.5-0.2,0.7,0l6,6c0.2,0.2,0.2,0.5,0,0.7       C59.6,65.3,59.2,65.3,59,65.1z" fill="#1E1E1E"/></g><g opacity="0.1"><path d="M71.6,77.7l-6.2-6.2c-0.2-0.2-0.2-0.5,0-0.7c0.2-0.2,0.5-0.2,0.7,0l6.2,6.2c0.2,0.2,0.2,0.5,0,0.7       C72.1,77.9,71.8,77.9,71.6,77.7z" fill="#1E1E1E"/></g></g><g><g><path d="M110.8,19.6c-0.3-0.3-0.3-0.8,0-1.1c0.3-0.3,0.8-0.3,1.1,0c0.3,0.3,0.3,0.8,0,1.1       S111.2,19.9,110.8,19.6z" fill="#1E1E1E"/></g><g><path d="M113.5,22.3c-0.3-0.3-0.3-0.8,0-1.1s0.8-0.3,1.1,0s0.3,0.8,0,1.1C114.4,22.6,113.9,22.6,113.5,22.3z" fill="#1E1E1E"/></g><g><path d="M105.4,14.2c-0.3-0.3-0.3-0.8,0-1.1c0.3-0.3,0.8-0.3,1.1,0c0.3,0.3,0.3,0.8,0,1.1       C106.2,14.5,105.7,14.5,105.4,14.2z" fill="#1E1E1E"/></g><g><path d="M108.1,16.9c-0.3-0.3-0.3-0.8,0-1.1c0.3-0.3,0.8-0.3,1.1,0c0.3,0.3,0.3,0.8,0,1.1       C109,17.2,108.5,17.2,108.1,16.9z" fill="#1E1E1E"/></g></g></g></g></g></svg>